<mxfile host="app.diagrams.net" modified="2023-11-29T13:33:30.532Z" agent="Mozilla/5.0 (Windows NT 10.0; Win64; x64) AppleWebKit/537.36 (KHTML, like Gecko) Chrome/119.0.0.0 Safari/537.36 Edg/119.0.0.0" etag="X4ByxLbJC8sN47Iho7Pg" version="22.1.4" type="device">
  <diagram name="Page-1" id="OZKoiA5Maencw49ccwFV">
    <mxGraphModel dx="1302" dy="662" grid="1" gridSize="10" guides="1" tooltips="1" connect="1" arrows="1" fold="1" page="1" pageScale="1" pageWidth="1400" pageHeight="850" math="0" shadow="0">
      <root>
        <mxCell id="0" />
        <mxCell id="1" parent="0" />
        <mxCell id="Dah2AcEq9HBlQVCrULvs-1" value="Pendaftaran Online Web KlinikGo" style="ellipse;whiteSpace=wrap;html=1;aspect=fixed;" vertex="1" parent="1">
          <mxGeometry x="610" y="330" width="120" height="120" as="geometry" />
        </mxCell>
        <mxCell id="Dah2AcEq9HBlQVCrULvs-5" value="" style="edgeStyle=orthogonalEdgeStyle;rounded=0;orthogonalLoop=1;jettySize=auto;html=1;" edge="1" parent="1" target="Dah2AcEq9HBlQVCrULvs-1">
          <mxGeometry relative="1" as="geometry">
            <mxPoint x="670" y="210" as="sourcePoint" />
          </mxGeometry>
        </mxCell>
        <mxCell id="Dah2AcEq9HBlQVCrULvs-2" value="Pasien" style="rounded=0;whiteSpace=wrap;html=1;" vertex="1" parent="1">
          <mxGeometry x="610" y="150" width="120" height="60" as="geometry" />
        </mxCell>
        <mxCell id="Dah2AcEq9HBlQVCrULvs-3" value="Sistem" style="rounded=0;whiteSpace=wrap;html=1;" vertex="1" parent="1">
          <mxGeometry x="240" y="360" width="120" height="60" as="geometry" />
        </mxCell>
        <mxCell id="Dah2AcEq9HBlQVCrULvs-4" value="Loket" style="rounded=0;whiteSpace=wrap;html=1;" vertex="1" parent="1">
          <mxGeometry x="910" y="360" width="120" height="60" as="geometry" />
        </mxCell>
        <mxCell id="Dah2AcEq9HBlQVCrULvs-6" value="Isi data" style="text;html=1;align=center;verticalAlign=middle;resizable=0;points=[];autosize=1;strokeColor=none;fillColor=none;rotation=90;" vertex="1" parent="1">
          <mxGeometry x="660" y="250" width="60" height="30" as="geometry" />
        </mxCell>
        <mxCell id="Dah2AcEq9HBlQVCrULvs-7" value="" style="endArrow=classic;html=1;rounded=0;entryX=0.376;entryY=1.03;entryDx=0;entryDy=0;entryPerimeter=0;exitX=0.394;exitY=0.006;exitDx=0;exitDy=0;exitPerimeter=0;" edge="1" parent="1" source="Dah2AcEq9HBlQVCrULvs-1" target="Dah2AcEq9HBlQVCrULvs-2">
          <mxGeometry width="50" height="50" relative="1" as="geometry">
            <mxPoint x="780" y="360" as="sourcePoint" />
            <mxPoint x="830" y="310" as="targetPoint" />
          </mxGeometry>
        </mxCell>
        <mxCell id="Dah2AcEq9HBlQVCrULvs-8" value="" style="endArrow=classic;html=1;rounded=0;entryX=-0.011;entryY=0.357;entryDx=0;entryDy=0;entryPerimeter=0;exitX=0.25;exitY=0;exitDx=0;exitDy=0;" edge="1" parent="1" source="Dah2AcEq9HBlQVCrULvs-3" target="Dah2AcEq9HBlQVCrULvs-2">
          <mxGeometry width="50" height="50" relative="1" as="geometry">
            <mxPoint x="420" y="360" as="sourcePoint" />
            <mxPoint x="470" y="310" as="targetPoint" />
            <Array as="points">
              <mxPoint x="270" y="171" />
            </Array>
          </mxGeometry>
        </mxCell>
        <mxCell id="Dah2AcEq9HBlQVCrULvs-9" value="kirim data" style="text;html=1;align=center;verticalAlign=middle;resizable=0;points=[];autosize=1;strokeColor=none;fillColor=none;" vertex="1" parent="1">
          <mxGeometry x="270" y="140" width="80" height="30" as="geometry" />
        </mxCell>
        <mxCell id="Dah2AcEq9HBlQVCrULvs-10" value="" style="endArrow=classic;html=1;rounded=0;entryX=1;entryY=0.25;entryDx=0;entryDy=0;exitX=0.003;exitY=0.389;exitDx=0;exitDy=0;exitPerimeter=0;" edge="1" parent="1" source="Dah2AcEq9HBlQVCrULvs-1" target="Dah2AcEq9HBlQVCrULvs-3">
          <mxGeometry width="50" height="50" relative="1" as="geometry">
            <mxPoint x="570" y="410" as="sourcePoint" />
            <mxPoint x="620" y="360" as="targetPoint" />
          </mxGeometry>
        </mxCell>
        <mxCell id="Dah2AcEq9HBlQVCrULvs-11" value="kirim data" style="text;html=1;align=center;verticalAlign=middle;resizable=0;points=[];autosize=1;strokeColor=none;fillColor=none;" vertex="1" parent="1">
          <mxGeometry x="410" y="348" width="80" height="30" as="geometry" />
        </mxCell>
        <mxCell id="Dah2AcEq9HBlQVCrULvs-12" value="" style="endArrow=classic;html=1;rounded=0;exitX=1.019;exitY=0.636;exitDx=0;exitDy=0;exitPerimeter=0;entryX=-0.007;entryY=0.59;entryDx=0;entryDy=0;entryPerimeter=0;" edge="1" parent="1" source="Dah2AcEq9HBlQVCrULvs-3" target="Dah2AcEq9HBlQVCrULvs-1">
          <mxGeometry width="50" height="50" relative="1" as="geometry">
            <mxPoint x="560" y="410" as="sourcePoint" />
            <mxPoint x="590" y="410" as="targetPoint" />
          </mxGeometry>
        </mxCell>
        <mxCell id="Dah2AcEq9HBlQVCrULvs-13" value="mengirim data" style="text;html=1;align=center;verticalAlign=middle;resizable=0;points=[];autosize=1;strokeColor=none;fillColor=none;" vertex="1" parent="1">
          <mxGeometry x="395" y="400" width="100" height="30" as="geometry" />
        </mxCell>
        <mxCell id="Dah2AcEq9HBlQVCrULvs-17" value="" style="endArrow=none;html=1;rounded=0;" edge="1" parent="1">
          <mxGeometry width="50" height="50" relative="1" as="geometry">
            <mxPoint x="615" y="90" as="sourcePoint" />
            <mxPoint x="725" y="90" as="targetPoint" />
          </mxGeometry>
        </mxCell>
        <mxCell id="Dah2AcEq9HBlQVCrULvs-18" value="Bukti Pendaftaran" style="text;html=1;align=center;verticalAlign=middle;resizable=0;points=[];autosize=1;strokeColor=none;fillColor=none;" vertex="1" parent="1">
          <mxGeometry x="610" y="60" width="120" height="30" as="geometry" />
        </mxCell>
        <mxCell id="Dah2AcEq9HBlQVCrULvs-19" value="" style="endArrow=none;html=1;rounded=0;" edge="1" parent="1">
          <mxGeometry width="50" height="50" relative="1" as="geometry">
            <mxPoint x="615" y="60" as="sourcePoint" />
            <mxPoint x="725" y="60" as="targetPoint" />
          </mxGeometry>
        </mxCell>
        <mxCell id="Dah2AcEq9HBlQVCrULvs-20" value="" style="endArrow=classic;html=1;rounded=0;exitX=0.488;exitY=0.007;exitDx=0;exitDy=0;entryX=0.485;entryY=0.998;entryDx=0;entryDy=0;entryPerimeter=0;exitPerimeter=0;" edge="1" parent="1" source="Dah2AcEq9HBlQVCrULvs-2" target="Dah2AcEq9HBlQVCrULvs-18">
          <mxGeometry width="50" height="50" relative="1" as="geometry">
            <mxPoint x="680" y="120" as="sourcePoint" />
            <mxPoint x="730" y="70" as="targetPoint" />
          </mxGeometry>
        </mxCell>
        <mxCell id="Dah2AcEq9HBlQVCrULvs-21" value="" style="endArrow=classic;html=1;rounded=0;exitX=1.011;exitY=0.426;exitDx=0;exitDy=0;exitPerimeter=0;entryX=0.012;entryY=0.346;entryDx=0;entryDy=0;entryPerimeter=0;" edge="1" parent="1" source="Dah2AcEq9HBlQVCrULvs-1" target="Dah2AcEq9HBlQVCrULvs-4">
          <mxGeometry width="50" height="50" relative="1" as="geometry">
            <mxPoint x="750" y="400" as="sourcePoint" />
            <mxPoint x="800" y="350" as="targetPoint" />
          </mxGeometry>
        </mxCell>
        <mxCell id="Dah2AcEq9HBlQVCrULvs-22" value="" style="endArrow=classic;html=1;rounded=0;entryX=1.017;entryY=0.588;entryDx=0;entryDy=0;entryPerimeter=0;exitX=-0.011;exitY=0.669;exitDx=0;exitDy=0;exitPerimeter=0;" edge="1" parent="1" source="Dah2AcEq9HBlQVCrULvs-4" target="Dah2AcEq9HBlQVCrULvs-1">
          <mxGeometry width="50" height="50" relative="1" as="geometry">
            <mxPoint x="800" y="460" as="sourcePoint" />
            <mxPoint x="850" y="410" as="targetPoint" />
          </mxGeometry>
        </mxCell>
        <mxCell id="Dah2AcEq9HBlQVCrULvs-23" value="mengirim data" style="text;html=1;align=center;verticalAlign=middle;resizable=0;points=[];autosize=1;strokeColor=none;fillColor=none;" vertex="1" parent="1">
          <mxGeometry x="750" y="348" width="100" height="30" as="geometry" />
        </mxCell>
        <mxCell id="Dah2AcEq9HBlQVCrULvs-24" value="" style="endArrow=classic;html=1;rounded=0;exitX=1;exitY=0.5;exitDx=0;exitDy=0;entryX=0.5;entryY=0;entryDx=0;entryDy=0;" edge="1" parent="1" source="Dah2AcEq9HBlQVCrULvs-2" target="Dah2AcEq9HBlQVCrULvs-4">
          <mxGeometry width="50" height="50" relative="1" as="geometry">
            <mxPoint x="620" y="250" as="sourcePoint" />
            <mxPoint x="670" y="200" as="targetPoint" />
            <Array as="points">
              <mxPoint x="970" y="180" />
            </Array>
          </mxGeometry>
        </mxCell>
        <mxCell id="Dah2AcEq9HBlQVCrULvs-25" value="registrasi ulang" style="text;html=1;align=center;verticalAlign=middle;resizable=0;points=[];autosize=1;strokeColor=none;fillColor=none;" vertex="1" parent="1">
          <mxGeometry x="870" y="150" width="100" height="30" as="geometry" />
        </mxCell>
        <mxCell id="Dah2AcEq9HBlQVCrULvs-26" value="kirim data" style="text;html=1;align=center;verticalAlign=middle;resizable=0;points=[];autosize=1;strokeColor=none;fillColor=none;" vertex="1" parent="1">
          <mxGeometry x="760" y="398" width="80" height="30" as="geometry" />
        </mxCell>
        <mxCell id="Dah2AcEq9HBlQVCrULvs-27" value="&lt;font style=&quot;font-size: 10px;&quot;&gt;menampilkan data&lt;/font&gt;" style="text;html=1;align=center;verticalAlign=middle;resizable=0;points=[];autosize=1;strokeColor=none;fillColor=none;rotation=-90;" vertex="1" parent="1">
          <mxGeometry x="590" y="260" width="110" height="30" as="geometry" />
        </mxCell>
      </root>
    </mxGraphModel>
  </diagram>
</mxfile>
